<svg width="24" height="18" viewBox="0 0 24 18" fill="none" xmlns="http://www.w3.org/2000/svg">
<path d="M7.73254 14.5158H7.73364C7.73456 14.5158 7.73547 14.5156 7.73639 14.5156H20.4844C20.7982 14.5156 21.0742 14.3074 21.1604 14.0057L23.9729 4.16193C24.0335 3.94971 23.991 3.72156 23.8583 3.54541C23.7253 3.36926 23.5175 3.26562 23.2969 3.26562H6.11096L5.60834 1.00372C5.53674 0.682007 5.25146 0.453125 4.92188 0.453125H0.703125C0.314758 0.453125 0 0.767883 0 1.15625C0 1.54462 0.314758 1.85937 0.703125 1.85937H4.35791C4.4469 2.26019 6.76318 12.6837 6.89648 13.2833C6.14923 13.6082 5.625 14.3532 5.625 15.2187C5.625 16.3818 6.57129 17.3281 7.73438 17.3281H20.4844C20.8727 17.3281 21.1875 17.0134 21.1875 16.625C21.1875 16.2366 20.8727 15.9219 20.4844 15.9219H7.73438C7.34674 15.9219 7.03125 15.6064 7.03125 15.2187C7.03125 14.8317 7.34564 14.5167 7.73254 14.5158ZM22.3647 4.67187L19.9539 13.1094H8.29834L6.42334 4.67187H22.3647Z" fill="white"/>
</svg>
